<svg id="Layer_1" data-name="Layer 1" xmlns="http://www.w3.org/2000/svg" xmlns:xlink="http://www.w3.org/1999/xlink" viewBox="0 0 122.63 17.93"><defs><style>.cls-1,.cls-2{fill:none;}.cls-1{clip-rule:evenodd;}.cls-3{clip-path:url(#clip-path);}.cls-4{clip-path:url(#clip-path-2);}.cls-5{fill:#ffa100;}</style><clipPath id="clip-path" transform="translate(0.95 -10.17)"><path class="cls-1" d="M45.5,26.12H42.37V24.58h0a3.54,3.54,0,0,1-3.1,1.79c-2.36,0-3.53-1.42-3.53-4.26V16h3.12v5.84c0,1.43.57,2.15,1.71,2.15a1.71,1.71,0,0,0,1.35-.59,2.36,2.36,0,0,0,.5-1.6V16H45.5V26.12Zm-10.93,0h-3V24.67h-.05a3.3,3.3,0,0,1-3,1.7,3.21,3.21,0,0,1-2.33-.83,3,3,0,0,1-.84-2.24c0-2,1.16-3.1,3.5-3.4l2.76-.37c0-1.1-.61-1.66-1.81-1.66A6.16,6.16,0,0,0,26.37,19V16.59A7.77,7.77,0,0,1,28.16,16a9.44,9.44,0,0,1,2.07-.26c2.89,0,4.34,1.45,4.34,4.33v6.05ZM31.63,22v-.69l-1.85.24q-1.53.2-1.53,1.38a1.15,1.15,0,0,0,.37.87,1.44,1.44,0,0,0,1,.34,1.87,1.87,0,0,0,1.44-.6A2.21,2.21,0,0,0,31.63,22Zm25.24,4.11H53.73V24.73h0a3.54,3.54,0,0,1-3.15,1.64A3.85,3.85,0,0,1,47.49,25a5.5,5.5,0,0,1-1.16-3.75,6,6,0,0,1,1.28-4A4.17,4.17,0,0,1,51,15.74a2.86,2.86,0,0,1,2.74,1.41h0v-6h3.14v15ZM53.8,21.2v-.77a2.42,2.42,0,0,0-.58-1.64,1.88,1.88,0,0,0-1.5-.65,1.91,1.91,0,0,0-1.63.81,3.9,3.9,0,0,0-.58,2.25,3.29,3.29,0,0,0,.56,2.05,1.87,1.87,0,0,0,1.57.73,1.9,1.9,0,0,0,1.56-.77,3.14,3.14,0,0,0,.6-2Zm6-6.81a1.85,1.85,0,0,1-1.3-.47,1.52,1.52,0,0,1-.5-1.16,1.42,1.42,0,0,1,.5-1.14,2.12,2.12,0,0,1,2.61,0,1.45,1.45,0,0,1,.5,1.14,1.51,1.51,0,0,1-.5,1.17,1.9,1.9,0,0,1-1.31.46Zm1.52,8.3a1.33,1.33,0,0,0,.31,1,1.07,1.07,0,0,0,.82.34A2.84,2.84,0,0,0,63,24l.52-.1v2.2c-.38.09-.77.17-1.19.24a9.33,9.33,0,0,1-1.32.09,3,3,0,0,1-1.13-.21,2.3,2.3,0,0,1-.88-.6,2.83,2.83,0,0,1-.56-.94,3.77,3.77,0,0,1-.2-1.25V16h3.12v6.7Zm7.12,3.68a5.46,5.46,0,0,1-4-1.42A5.12,5.12,0,0,1,63,21.1a5.14,5.14,0,0,1,1.51-3.94,5.71,5.71,0,0,1,4.07-1.42,5.43,5.43,0,0,1,4,1.42A5,5,0,0,1,74,20.92a5.36,5.36,0,0,1-1.48,4,5.55,5.55,0,0,1-4.06,1.46Zm.08-8.23c1.51,0,2.27.94,2.27,2.84s-.75,3-2.25,3-2.37-1-2.37-2.92a3.37,3.37,0,0,1,.62-2.16,2.08,2.08,0,0,1,1.73-.76Zm22.42,8H87.83V20.34c0-1.47-.54-2.2-1.62-2.2A1.49,1.49,0,0,0,85,18.8a2.67,2.67,0,0,0-.49,1.65v5.67H81.33V20.28c0-1.43-.54-2.14-1.6-2.14a1.53,1.53,0,0,0-1.28.63A2.79,2.79,0,0,0,78,20.49v5.63H74.83V16H78v1.58h0a3.78,3.78,0,0,1,1.37-1.32,3.73,3.73,0,0,1,1.92-.51,2.92,2.92,0,0,1,2.94,1.89,3.77,3.77,0,0,1,3.42-1.89c2.2,0,3.31,1.36,3.31,4.08v6.3Zm9.72,0h-3V24.67h0a3.32,3.32,0,0,1-3,1.7,3.22,3.22,0,0,1-2.33-.83,3,3,0,0,1-.84-2.24c0-2,1.17-3.1,3.5-3.4l2.76-.37c0-1.1-.61-1.66-1.81-1.66A6.16,6.16,0,0,0,92.48,19V16.59A7.94,7.94,0,0,1,94.27,16a9.59,9.59,0,0,1,2.07-.26c2.89,0,4.34,1.45,4.34,4.33v6.05ZM97.74,22a2.21,2.21,0,0,1-.56,1.54,1.87,1.87,0,0,1-1.44.6,1.41,1.41,0,0,1-1-.34,1.11,1.11,0,0,1-.37-.87c0-.79.5-1.25,1.52-1.38l1.85-.24V22Zm11.91,3.75a6.15,6.15,0,0,1-3.06.61A5.21,5.21,0,0,1,102.8,25a4.92,4.92,0,0,1-1.45-3.66,5.37,5.37,0,0,1,1.56-4.07,5.75,5.75,0,0,1,4.15-1.49,5.25,5.25,0,0,1,2.59.48v2.65a3.54,3.54,0,0,0-2.18-.73,2.85,2.85,0,0,0-2.14.79,2.89,2.89,0,0,0-.79,2.17,2.9,2.9,0,0,0,.75,2.11,2.78,2.78,0,0,0,2.07.77,4.09,4.09,0,0,0,2.29-.74v2.52Zm11.08.37H117l-3.24-5h0v5h-3.13v-15h3.13v9.53h0l3-4.68h3.72l-3.64,4.75,3.9,5.37Z"/></clipPath><clipPath id="clip-path-2" transform="translate(0.95 -10.17)"><path class="cls-1" d="M.27,20s.44-.07.62.12.06.57-.18.58-.46,0-.62-.12A.35.35,0,0,1,.27,20M5,22.63a.2.2,0,0,1-.14-.05c-.31-.43-.43-1.93-.57-2s-.69.83-1.77.73a2.48,2.48,0,0,1-1.18-.54c0-.34,0-1.13.7-.87.41.16,1.11.59,1.72-.19s1-.6,1.28-.42.07,1.16.41.88,1.69-1.94,1.69-1.94,1-1.06,1.2.05a4.07,4.07,0,0,0,1,2.3c.18,0,2.29-4.3,2.59-4.58s1.31-.24,1.27.47-.16,5.1-.16,5.1-.11,1.23.08.57c.08-.27.17-.52.27-.81.52-1.66,1.41-4.49,1.85-5.95.1-.35.19-.65.26-.88h0a1.34,1.34,0,0,1,.08-.26,1.32,1.32,0,0,1,.07-.23.25.25,0,0,1,.15-.13.45.45,0,0,1,.26,0,2.51,2.51,0,0,1,.84.09.48.48,0,0,1,.26.09h0a.29.29,0,0,1,.08.08h0l0,.06a2.13,2.13,0,0,1,.16,1.42c-.25,1.88-.43,5.77-.43,5.77s0,.18.35-.63a.22.22,0,0,1,.05-.08l.07-.07a2,2,0,0,1,1.34-.45,1,1,0,0,1,.44.13,3.16,3.16,0,0,1,.07,1.26c-.37,0-1.08.23-1.34.27s-.63,1.67-1.17,1.51a5.93,5.93,0,0,1-1.72-1c0-.09.1-1.17.12-1.45v-.06h0c0-.22,0-.32-.11-.1s-.47,1.41-.89,2.73c-.05.11-.85,2.55-1,2.85a6.64,6.64,0,0,1-.31.74.4.4,0,0,1-.47.18,2.3,2.3,0,0,1-1.19-1.06c0-1,0-6.44-.2-6S9,23.76,9,23.76H8.89c-.14,0-.35-.06-.41-.2v-.05c0-.09,0-.19-.06-.27C8.31,23,8.17,22.54,8,22.1c-.23-.73-.46-1.48-.5-1.56s-.18-.1-.28,0c-.44.37-1.37,2-2.2,2.09"/></clipPath></defs><title>Audiomack-inline-orange</title><rect class="cls-2" x="0.95" y="0.95" width="120.73" height="16.02"/><rect class="cls-2" x="0.95" y="0.95" width="120.73" height="16.02"/><g class="cls-3"><rect x="25.37" width="97.27" height="17.16"/></g><g class="cls-4"><rect class="cls-5" y="2.67" width="21.36" height="15.26"/></g></svg>